<?xml version="1.0" standalone="no"?>
<!DOCTYPE svg PUBLIC "-//W3C//DTD SVG 20010904//EN"
 "http://www.w3.org/TR/2001/REC-SVG-20010904/DTD/svg10.dtd">
<svg version="1.0" xmlns="http://www.w3.org/2000/svg"
 width="208.000000pt" height="208.000000pt" viewBox="0 0 208.000000 208.000000"
 preserveAspectRatio="xMidYMid meet">

<g transform="translate(0.000000,208.000000) scale(0.100000,-0.100000)"
fill="#000000" stroke="none">
<path d="M925 1630 c-120 -39 -221 -133 -267 -250 -17 -43 -22 -76 -22 -156
-1 -96 1 -104 35 -172 l35 -72 -37 -26 c-49 -34 -106 -117 -118 -174 -6 -25
-11 -116 -11 -202 l0 -158 40 0 40 0 0 169 c0 165 1 170 28 222 17 32 44 65
69 82 l40 29 46 -35 c87 -66 214 -97 317 -77 60 11 159 56 202 92 l28 22 42
-30 c26 -18 53 -50 70 -83 27 -52 28 -57 28 -223 l0 -169 38 3 37 3 0 180 c0
166 -2 183 -22 225 -24 49 -70 103 -115 135 l-27 20 31 65 c61 125 48 299 -32
415 -43 62 -105 114 -179 148 -86 41 -204 47 -296 17z m249 -81 c230 -85 294
-392 118 -567 -68 -68 -139 -97 -242 -96 -72 0 -94 4 -141 27 -67 32 -142 109
-171 175 -25 56 -35 170 -19 227 27 101 122 205 216 239 61 22 174 20 239 -5z"/>
<path d="M870 1270 l0 -40 50 0 50 0 0 40 0 40 -50 0 -50 0 0 -40z"/>
<path d="M1140 1270 l0 -40 50 0 50 0 0 40 0 40 -50 0 -50 0 0 -40z"/>
<path d="M892 1125 c-30 -13 -32 -16 -21 -37 38 -74 139 -128 212 -113 50 11
113 52 136 89 28 45 27 51 -13 63 -31 10 -35 8 -49 -17 -18 -30 -72 -60 -107
-60 -31 0 -75 25 -102 59 -22 29 -24 29 -56 16z"/>
</g>
</svg>
